<?xml version="1.0" encoding="utf-8"?>
<!-- Generator: Adobe Illustrator 26.4.1, SVG Export Plug-In . SVG Version: 6.00 Build 0)  -->
<svg version="1.1" id="_x2018_ëîé_x5F_1" xmlns="http://www.w3.org/2000/svg" xmlns:xlink="http://www.w3.org/1999/xlink"
	 x="0px" y="0px" viewBox="0 0 4650.89 2800.34" style="enable-background:new 0 0 4650.89 2800.34;" xml:space="preserve">
<style type="text/css">
	.st0{fill:#C7DDF3;}
	.st1{fill:#211F44;}
	.st2{fill:#2B3872;}
	.st3{fill:#FFFFFF;}
	.st4{fill:#211F44;stroke:#211F44;stroke-width:2;stroke-miterlimit:10;}
	.st5{fill:#262F5F;}
	.st6{fill:#9DBDE4;}
	.st7{opacity:0.4;}
	.st8{fill:#739CD2;}
	.st9{opacity:0.2;}
	.st10{opacity:0.4;fill:#739CD2;}
	.st11{opacity:0.2;fill:#739CD2;}
	.st12{fill:#2C447D;}
	.st13{fill:#4461A8;}
	.st14{opacity:0.3;}
</style>
<g>
	<g>
		<path class="st0" d="M4216.28,2543.98c0,10.53-0.09,21.04-0.26,31.53H437.65c-0.18-10.49-0.26-21-0.26-31.53
			c0-1043.52,845.93-1889.45,1889.45-1889.45S4216.28,1500.46,4216.28,2543.98z"/>
		<g>
			<path class="st1" d="M301.55,2575.52h-54.47c-16.7,0-30.24-13.54-30.24-30.24v-4.61c0-16.7,13.54-30.24,30.24-30.24h54.47
				c16.7,0,30.24,13.54,30.24,30.24v4.61C331.79,2561.98,318.25,2575.52,301.55,2575.52z"/>
			<path class="st1" d="M4241.84,2575.52H411.82c-17.98,0-32.55-14.57-32.55-32.55l0,0c0-17.98,14.57-32.55,32.55-32.55h3830.01
				c17.98,0,32.55,14.57,32.55,32.55l0,0C4274.38,2560.94,4259.81,2575.52,4241.84,2575.52z"/>
			<path class="st1" d="M299.24,2575.52h-49.86c-17.98,0-32.55-14.57-32.55-32.55l0,0c0-17.98,14.57-32.55,32.55-32.55h49.86
				c17.98,0,32.55,14.57,32.55,32.55l0,0C331.79,2560.94,317.22,2575.52,299.24,2575.52z"/>
			<path class="st1" d="M4404.28,2575.52h-49.86c-17.98,0-32.55-14.57-32.55-32.55l0,0c0-17.98,14.57-32.55,32.55-32.55h49.86
				c17.98,0,32.55,14.57,32.55,32.55l0,0C4436.82,2560.94,4422.25,2575.52,4404.28,2575.52z"/>
		</g>
		<g>
			<g>
				<path class="st2" d="M525.11,1320.98h29.06c4.13,0,7.48,3.35,7.48,7.48l0,0c0,4.13-3.35,7.48-7.48,7.48h-29.06
					c-4.13,0-7.48-3.35-7.48-7.48c0-2.06,0.84-3.93,2.19-5.29C521.18,1321.82,523.05,1320.98,525.11,1320.98z"/>
				<path class="st2" d="M633.64,1328.33c0.04,2.11-0.81,4.03-2.19,5.42c-1.35,1.35-3.22,2.19-5.29,2.19H597.1
					c-4.13,0-7.48-3.35-7.48-7.48l0,0c0-4.13,3.35-7.48,7.48-7.48h28.88C630.1,1320.98,633.57,1324.22,633.64,1328.33z"/>
				<path class="st2" d="M583.12,1277.93v29.06c0,4.13-3.35,7.48-7.48,7.48l0,0c-4.13,0-7.48-3.35-7.48-7.48v-29.06
					c0-4.13,3.35-7.48,7.48-7.48c2.07,0,3.94,0.84,5.29,2.19C582.28,1273.99,583.12,1275.86,583.12,1277.93z"/>
				<path class="st2" d="M575.64,1342.44L575.64,1342.44c4.13,0,7.48,3.35,7.48,7.48v29.06c0,4.13-3.35,7.48-7.48,7.48
					c-2.06,0-3.93-0.84-5.29-2.19c-1.36-1.35-2.19-3.22-2.19-5.29v-29.06C568.16,1345.79,571.51,1342.44,575.64,1342.44z"/>
			</g>
			<path class="st2" d="M1411.55,389.01c-21.14,0-38.27,17.14-38.27,38.27c0,21.14,17.14,38.27,38.27,38.27
				c21.14,0,38.27-17.14,38.27-38.27C1449.82,406.14,1432.69,389.01,1411.55,389.01z M1411.55,453.35
				c-14.4,0-26.07-11.67-26.07-26.07c0-14.4,11.67-26.07,26.07-26.07c14.4,0,26.07,11.67,26.07,26.07
				C1437.62,441.68,1425.95,453.35,1411.55,453.35z"/>
			<g>
				<path class="st2" d="M1309.27,2016.75h29.06c4.13,0,7.48,3.35,7.48,7.48l0,0c0,4.13-3.35,7.48-7.48,7.48h-29.06
					c-4.13,0-7.48-3.35-7.48-7.48c0-2.06,0.84-3.93,2.19-5.29C1305.34,2017.59,1307.21,2016.75,1309.27,2016.75z"/>
				<path class="st2" d="M1417.8,2024.1c0.04,2.11-0.81,4.03-2.19,5.42c-1.35,1.35-3.22,2.19-5.29,2.19h-29.06
					c-4.13,0-7.48-3.35-7.48-7.48l0,0c0-4.13,3.35-7.48,7.48-7.48h28.88C1414.26,2016.75,1417.74,2019.99,1417.8,2024.1z"/>
				<path class="st2" d="M1367.28,1973.7v29.06c0,4.13-3.35,7.48-7.48,7.48l0,0c-4.13,0-7.48-3.35-7.48-7.48v-29.06
					c0-4.13,3.35-7.48,7.48-7.48c2.07,0,3.94,0.84,5.29,2.19C1366.44,1969.77,1367.28,1971.64,1367.28,1973.7z"/>
				<path class="st2" d="M1359.8,2038.22L1359.8,2038.22c4.13,0,7.48,3.35,7.48,7.48v29.06c0,4.13-3.35,7.48-7.48,7.48
					c-2.06,0-3.93-0.84-5.29-2.19c-1.36-1.35-2.19-3.22-2.19-5.29v-29.06C1352.32,2041.57,1355.67,2038.22,1359.8,2038.22z"/>
			</g>
			<path class="st2" d="M612.66,2290.73c-23.12,0-41.86,18.74-41.86,41.86c0,23.12,18.74,41.86,41.86,41.86
				c23.12,0,41.86-18.74,41.86-41.86C654.52,2309.48,635.78,2290.73,612.66,2290.73z M612.66,2355.85
				c-12.84,0-23.25-10.41-23.25-23.25c0-12.84,10.41-23.25,23.25-23.25c12.84,0,23.25,10.41,23.25,23.25
				C635.92,2345.44,625.5,2355.85,612.66,2355.85z"/>
			<g>
				<path class="st2" d="M3111.06,2392.25h34.39c4.89,0,8.85,3.96,8.85,8.85l0,0c0,4.89-3.96,8.85-8.85,8.85h-34.39
					c-4.88,0-8.85-3.96-8.85-8.85c0-2.44,0.99-4.65,2.59-6.25C3106.41,2393.24,3108.62,2392.25,3111.06,2392.25z"/>
				<path class="st2" d="M3239.47,2400.94c0.04,2.5-0.95,4.77-2.59,6.41c-1.6,1.6-3.81,2.59-6.25,2.59h-34.39
					c-4.89,0-8.85-3.96-8.85-8.85l0,0c0-4.89,3.96-8.85,8.85-8.85h34.17C3235.28,2392.25,3239.39,2396.08,3239.47,2400.94z"/>
				<path class="st2" d="M3179.69,2341.31v34.38c0,4.89-3.96,8.85-8.85,8.85l0,0c-4.89,0-8.85-3.96-8.85-8.85v-34.38
					c0-4.89,3.96-8.85,8.85-8.85c2.45,0,4.66,0.99,6.26,2.59S3179.69,2338.86,3179.69,2341.31z"/>
				<path class="st2" d="M3170.85,2417.64L3170.85,2417.64c4.89,0,8.85,3.96,8.85,8.85v34.39c0,4.88-3.96,8.85-8.85,8.85
					c-2.44,0-4.65-0.99-6.25-2.59c-1.6-1.6-2.59-3.81-2.59-6.25v-34.39C3162,2421.61,3165.96,2417.64,3170.85,2417.64z"/>
			</g>
			<path class="st2" d="M3491.83,1327.55c-23.12,0-41.86,18.74-41.86,41.86c0,23.12,18.74,41.86,41.86,41.86
				c23.12,0,41.86-18.74,41.86-41.86C3533.69,1346.3,3514.95,1327.55,3491.83,1327.55z M3491.83,1392.67
				c-12.84,0-23.25-10.41-23.25-23.25c0-12.84,10.41-23.25,23.25-23.25c12.84,0,23.25,10.41,23.25,23.25
				C3515.09,1382.26,3504.68,1392.67,3491.83,1392.67z"/>
			<g>
				<path class="st2" d="M2649.65,280.72h29.83c4.24,0,7.67,3.44,7.67,7.67l0,0c0,4.24-3.44,7.67-7.67,7.67h-29.83
					c-4.24,0-7.67-3.43-7.67-7.67c0-2.12,0.86-4.04,2.25-5.42C2645.61,281.58,2647.53,280.72,2649.65,280.72z"/>
				<path class="st2" d="M2761.04,288.27c0.04,2.17-0.83,4.14-2.25,5.56c-1.39,1.39-3.31,2.25-5.42,2.25h-29.83
					c-4.24,0-7.67-3.44-7.67-7.67l0,0c0-4.24,3.44-7.67,7.67-7.67h29.64C2757.4,280.72,2760.97,284.05,2761.04,288.27z"/>
				<path class="st2" d="M2709.18,236.54v29.82c0,4.24-3.44,7.68-7.68,7.68l0,0c-4.24,0-7.68-3.44-7.68-7.68v-29.82
					c0-4.24,3.44-7.67,7.67-7.67c2.12,0,4.04,0.86,5.43,2.25C2708.32,232.5,2709.18,234.42,2709.18,236.54z"/>
				<path class="st2" d="M2701.51,302.75L2701.51,302.75c4.24,0,7.68,3.44,7.68,7.68v29.83c0,4.24-3.44,7.67-7.68,7.67
					c-2.12,0-4.04-0.86-5.42-2.25c-1.39-1.39-2.25-3.31-2.25-5.42v-29.83C2693.83,306.19,2697.27,302.75,2701.51,302.75z"/>
			</g>
			<g>
				<path class="st2" d="M4204.42,1795.12h29.06c4.13,0,7.48,3.35,7.48,7.48l0,0c0,4.13-3.35,7.48-7.48,7.48h-29.06
					c-4.13,0-7.48-3.35-7.48-7.48c0-2.06,0.84-3.93,2.19-5.29C4200.48,1795.95,4202.35,1795.12,4204.42,1795.12z"/>
				<path class="st2" d="M4312.95,1802.47c0.03,2.11-0.81,4.03-2.19,5.42c-1.35,1.35-3.22,2.19-5.29,2.19h-29.06
					c-4.13,0-7.48-3.35-7.48-7.48l0,0c0-4.13,3.35-7.48,7.48-7.48h28.88C4309.4,1795.12,4312.88,1798.36,4312.95,1802.47z"/>
				<path class="st2" d="M4262.42,1752.07v29.06c0,4.13-3.35,7.48-7.48,7.48l0,0c-4.13,0-7.48-3.35-7.48-7.48v-29.06
					c0-4.13,3.35-7.48,7.48-7.48c2.07,0,3.94,0.84,5.29,2.19S4262.42,1750,4262.42,1752.07z"/>
				<path class="st2" d="M4254.94,1816.58L4254.94,1816.58c4.13,0,7.48,3.35,7.48,7.48v29.06c0,4.13-3.35,7.48-7.48,7.48
					c-2.06,0-3.93-0.84-5.29-2.19c-1.36-1.35-2.19-3.22-2.19-5.29v-29.06C4247.46,1819.93,4250.81,1816.58,4254.94,1816.58z"/>
			</g>
		</g>
		<path class="st3" d="M881.54,2509.29c-0.03,0-0.06,0-0.08,0c-3.87-0.05-6.96-3.22-6.92-7.08c0.2-16.68,0.68-33.57,1.44-50.2
			c0.18-3.86,3.43-6.86,7.31-6.67c3.86,0.18,6.85,3.45,6.67,7.31c-0.75,16.47-1.24,33.2-1.43,49.72
			C888.49,2506.21,885.36,2509.29,881.54,2509.29z M3771.81,2491.63c-3.79,0-6.91-3.03-7-6.83c-0.39-16.51-1.07-33.23-2.03-49.71
			c-0.22-3.86,2.72-7.17,6.58-7.39c3.87-0.24,7.17,2.72,7.39,6.58c0.96,16.63,1.65,33.52,2.05,50.19c0.09,3.87-2.97,7.07-6.83,7.16
			C3771.92,2491.62,3771.86,2491.63,3771.81,2491.63z M887.86,2389.54c-0.22,0-0.44-0.01-0.66-0.03c-3.85-0.36-6.68-3.78-6.31-7.62
			c1.56-16.61,3.44-33.4,5.57-49.91c0.49-3.83,4-6.54,7.84-6.05c3.83,0.5,6.54,4,6.05,7.84c-2.11,16.35-3.96,32.98-5.51,49.43
			C894.48,2386.82,891.43,2389.54,887.86,2389.54z M3764.04,2371.95c-3.53,0-6.57-2.67-6.95-6.26c-1.75-16.42-3.8-33.03-6.11-49.36
			c-0.54-3.83,2.12-7.37,5.95-7.91c3.83-0.54,7.37,2.12,7.91,5.95c2.33,16.49,4.41,33.26,6.17,49.84c0.41,3.84-2.38,7.29-6.22,7.7
			C3764.54,2371.93,3764.29,2371.95,3764.04,2371.95z M904.03,2270.7c-0.41,0-0.82-0.04-1.24-0.11c-3.81-0.68-6.34-4.32-5.66-8.12
			c2.93-16.41,6.19-32.99,9.69-49.28c0.81-3.78,4.53-6.19,8.31-5.37c3.78,0.81,6.19,4.53,5.37,8.31
			c-3.47,16.13-6.69,32.55-9.6,48.81C910.3,2268.32,907.35,2270.7,904.03,2270.7z M3746.42,2253.33c-3.29,0-6.23-2.33-6.87-5.68
			c-3.11-16.22-6.54-32.6-10.2-48.68c-0.86-3.77,1.5-7.52,5.27-8.38c3.77-0.86,7.52,1.5,8.38,5.27c3.7,16.24,7.16,32.78,10.3,49.16
			c0.73,3.8-1.76,7.46-5.56,8.19C3747.3,2253.29,3746.85,2253.33,3746.42,2253.33z M930.02,2153.63c-0.6,0-1.2-0.08-1.81-0.24
			c-3.74-0.99-5.96-4.83-4.96-8.57c4.29-16.1,8.92-32.35,13.77-48.3c1.12-3.7,5.04-5.79,8.73-4.66c3.7,1.12,5.79,5.03,4.66,8.73
			c-4.8,15.8-9.39,31.89-13.64,47.84C935.95,2151.56,933.12,2153.63,930.02,2153.63z M3718.98,2136.58c-3.06,0-5.87-2.02-6.74-5.12
			c-4.45-15.91-9.23-31.95-14.23-47.66c-1.17-3.68,0.87-7.62,4.55-8.79c3.68-1.17,7.62,0.87,8.79,4.55
			c5.04,15.87,9.87,32.07,14.37,48.13c1.04,3.72-1.13,7.58-4.86,8.63C3720.24,2136.5,3719.61,2136.58,3718.98,2136.58z
			 M965.77,2038.96c-0.78,0-1.58-0.13-2.36-0.41c-3.64-1.3-5.53-5.31-4.23-8.95c5.64-15.73,11.63-31.58,17.82-47.11
			c1.43-3.59,5.5-5.34,9.09-3.91c3.59,1.43,5.34,5.5,3.91,9.09c-6.12,15.38-12.06,31.07-17.64,46.65
			C971.33,2037.18,968.64,2038.96,965.77,2038.96z M3681.89,2022.53c-2.84,0-5.51-1.74-6.56-4.56
			c-5.75-15.46-11.86-31.04-18.16-46.31c-1.47-3.57,0.23-7.67,3.8-9.14c3.58-1.47,7.67,0.23,9.14,3.8
			c6.36,15.42,12.53,31.15,18.34,46.76c1.35,3.62-0.5,7.65-4.12,9C3683.53,2022.39,3682.7,2022.53,3681.89,2022.53z M1011.02,1927.6
			c-0.97,0-1.96-0.2-2.9-0.63c-3.52-1.6-5.07-5.76-3.46-9.27c6.93-15.2,14.22-30.48,21.68-45.43c1.73-3.46,5.93-4.87,9.39-3.14
			c3.46,1.72,4.87,5.93,3.14,9.39c-7.38,14.8-14.61,29.94-21.47,44.99C1016.21,1926.07,1013.67,1927.6,1011.02,1927.6z
			 M3635.47,1912.1c-2.63,0-5.15-1.49-6.34-4.02c-7.01-14.89-14.37-29.88-21.9-44.53c-1.77-3.44-0.41-7.66,3.03-9.42
			s7.66-0.41,9.42,3.03c7.6,14.8,15.04,29.93,22.11,44.97c1.65,3.5,0.14,7.67-3.35,9.31
			C3637.48,1911.89,3636.47,1912.1,3635.47,1912.1z M1065.38,1820.46c-1.16,0-2.34-0.29-3.42-0.9c-3.37-1.89-4.57-6.16-2.68-9.53
			c8.17-14.56,16.71-29.18,25.37-43.44c2.01-3.3,6.31-4.36,9.62-2.35c3.3,2.01,4.35,6.31,2.35,9.62
			c-8.58,14.12-17.03,28.59-25.12,43.02C1070.2,1819.17,1067.83,1820.46,1065.38,1820.46z M3580.06,1805.99
			c-2.42,0-4.78-1.26-6.07-3.51c-8.23-14.28-16.82-28.61-25.54-42.59c-2.04-3.28-1.04-7.6,2.24-9.64c3.28-2.04,7.6-1.04,9.64,2.24
			c8.8,14.11,17.47,28.58,25.78,43.01c1.93,3.35,0.78,7.63-2.57,9.56C3582.45,1805.69,3581.24,1805.99,3580.06,1805.99z
			 M1128.43,1718.27c-1.35,0-2.71-0.39-3.91-1.2c-3.2-2.17-4.04-6.52-1.88-9.72c9.33-13.81,19.05-27.66,28.87-41.16
			c2.27-3.13,6.65-3.82,9.78-1.54c3.13,2.27,3.82,6.65,1.54,9.78c-9.73,13.37-19.34,27.09-28.59,40.77
			C1132.88,1717.19,1130.67,1718.27,1128.43,1718.27z M3516,1704.78c-2.22,0-4.4-1.05-5.76-3.02
			c-9.39-13.55-19.14-27.13-28.99-40.36c-2.31-3.1-1.67-7.49,1.43-9.79c3.1-2.31,7.49-1.67,9.79,1.43
			c9.95,13.35,19.79,27.07,29.27,40.75c2.2,3.18,1.41,7.54-1.77,9.74C3518.77,1704.37,3517.38,1704.78,3516,1704.78z
			 M1199.7,1621.69c-1.54,0-3.09-0.5-4.38-1.54c-3.01-2.42-3.49-6.83-1.07-9.84c10.45-13,21.27-25.99,32.15-38.62
			c2.53-2.93,6.94-3.25,9.87-0.73c2.93,2.53,3.25,6.95,0.73,9.87c-10.78,12.51-21.5,25.37-31.84,38.24
			C1203.78,1620.8,1201.75,1621.69,1199.7,1621.69z M3443.76,1609.15c-2.02,0-4.03-0.87-5.41-2.55
			c-10.49-12.75-21.33-25.49-32.24-37.85c-2.56-2.9-2.28-7.32,0.62-9.88c2.9-2.56,7.32-2.28,9.88,0.62
			c11.01,12.49,21.96,25.34,32.55,38.22c2.46,2.99,2.03,7.4-0.96,9.85C3446.9,1608.63,3445.33,1609.15,3443.76,1609.15z
			 M1278.67,1531.37c-1.73,0-3.47-0.64-4.82-1.92c-2.8-2.66-2.92-7.09-0.25-9.9c11.48-12.08,23.32-24.13,35.21-35.82
			c2.76-2.71,7.19-2.67,9.9,0.08c2.71,2.76,2.67,7.19-0.09,9.9c-11.77,11.57-23.51,23.51-34.87,35.47
			C1282.37,1530.64,1280.52,1531.37,1278.67,1531.37z M3363.85,1519.76c-1.83,0-3.65-0.71-5.02-2.12
			c-11.49-11.84-23.36-23.64-35.26-35.09c-2.79-2.68-2.87-7.11-0.19-9.9c2.68-2.79,7.11-2.88,9.9-0.19
			c12.02,11.55,24,23.47,35.6,35.42c2.69,2.77,2.63,7.21-0.14,9.9C3367.36,1519.11,3365.6,1519.76,3363.85,1519.76z
			 M1364.78,1447.89c-1.93,0-3.84-0.79-5.23-2.34c-2.57-2.88-2.32-7.31,0.56-9.88c12.44-11.1,25.23-22.13,38.02-32.78
			c2.97-2.47,7.39-2.07,9.86,0.9c2.47,2.97,2.07,7.38-0.9,9.86c-12.67,10.55-25.34,21.47-37.66,32.46
			C1368.1,1447.31,1366.44,1447.89,1364.78,1447.89z M3276.8,1437.23c-1.63,0-3.27-0.57-4.6-1.73
			c-12.45-10.86-25.25-21.65-38.05-32.07c-3-2.44-3.45-6.85-1.01-9.85c2.44-3,6.85-3.45,9.85-1.01
			c12.93,10.52,25.85,21.42,38.42,32.38c2.91,2.54,3.21,6.96,0.67,9.88C3280.7,1436.42,3278.75,1437.23,3276.8,1437.23z
			 M1457.43,1371.83c-2.12,0-4.22-0.96-5.59-2.79c-2.33-3.09-1.71-7.48,1.38-9.8c13.3-10.03,26.95-19.96,40.58-29.52
			c3.16-2.22,7.53-1.45,9.75,1.71c2.22,3.16,1.45,7.53-1.71,9.75c-13.5,9.47-27.02,19.3-40.19,29.23
			C1460.38,1371.37,1458.9,1371.83,1457.43,1371.83z M3183.21,1362.13c-1.44,0-2.9-0.44-4.15-1.36c-13.3-9.8-26.96-19.5-40.59-28.83
			c-3.19-2.18-4-6.54-1.82-9.73c2.18-3.19,6.54-4.01,9.73-1.82c13.77,9.42,27.55,19.22,40.99,29.11c3.11,2.29,3.78,6.68,1.48,9.79
			C3187.48,1361.14,3185.36,1362.13,3183.21,1362.13z M1556,1303.71c-2.32,0-4.59-1.15-5.92-3.26c-2.07-3.27-1.09-7.59,2.18-9.66
			c14.07-8.89,28.49-17.65,42.85-26.04c3.34-1.95,7.62-0.83,9.58,2.51c1.95,3.34,0.83,7.62-2.51,9.58
			c-14.22,8.31-28.5,16.99-42.44,25.79C1558.57,1303.36,1557.28,1303.71,1556,1303.71z M3083.69,1295c-1.25,0-2.52-0.34-3.66-1.04
			c-14.07-8.66-28.49-17.2-42.86-25.38c-3.36-1.91-4.53-6.19-2.62-9.55c1.91-3.36,6.19-4.53,9.55-2.62
			c14.51,8.26,29.07,16.88,43.28,25.63c3.29,2.03,4.32,6.34,2.29,9.63C3088.33,1293.81,3086.04,1295,3083.69,1295z M1659.81,1244.01
			c-2.53,0-4.97-1.37-6.21-3.77c-1.79-3.43-0.46-7.66,2.97-9.44c14.76-7.69,29.84-15.22,44.83-22.39c3.49-1.67,7.67-0.19,9.33,3.3
			c1.67,3.49,0.19,7.67-3.3,9.33c-14.85,7.1-29.79,14.55-44.4,22.17C1662,1243.75,1660.9,1244.01,1659.81,1244.01z M2978.89,1236.32
			c-1.06,0-2.14-0.24-3.16-0.76c-14.76-7.48-29.86-14.79-44.85-21.74c-3.51-1.62-5.03-5.79-3.41-9.29c1.62-3.51,5.79-5.03,9.29-3.41
			c15.14,7.02,30.38,14.4,45.29,21.95c3.45,1.75,4.83,5.96,3.08,9.41C2983.91,1234.92,2981.45,1236.32,2978.89,1236.32z
			 M1768.14,1193.16c-2.74,0-5.33-1.61-6.46-4.29c-1.5-3.57,0.18-7.67,3.75-9.16c15.33-6.43,30.98-12.68,46.5-18.56
			c3.61-1.37,7.66,0.45,9.03,4.06c1.37,3.61-0.45,7.66-4.06,9.03c-15.38,5.83-30.87,12.02-46.05,18.38
			C1769.96,1192.99,1769.04,1193.16,1768.14,1193.16z M2869.51,1186.56c-0.88,0-1.77-0.17-2.63-0.51
			c-15.33-6.22-30.99-12.25-46.54-17.93c-3.63-1.33-5.5-5.35-4.17-8.98c1.33-3.63,5.35-5.5,8.98-4.17
			c15.71,5.74,31.52,11.83,47,18.1c3.58,1.45,5.31,5.53,3.86,9.12C2874.9,1184.91,2872.28,1186.56,2869.51,1186.56z
			 M1880.43,1151.48c-2.95,0-5.7-1.88-6.66-4.84c-1.19-3.68,0.82-7.63,4.5-8.82c15.85-5.14,32.01-10.07,48.04-14.66
			c3.72-1.07,7.59,1.09,8.66,4.8c1.06,3.72-1.09,7.59-4.8,8.66c-15.87,4.55-31.88,9.43-47.57,14.52
			C1881.87,1151.37,1881.14,1151.48,1880.43,1151.48z M2756.29,1146.1c-0.69,0-1.39-0.1-2.08-0.32
			c-15.76-4.9-31.83-9.59-47.75-13.93c-3.73-1.02-5.93-4.87-4.91-8.6c1.02-3.73,4.87-5.93,8.6-4.91
			c16.08,4.39,32.3,9.12,48.22,14.07c3.69,1.15,5.75,5.07,4.61,8.76C2762.04,1144.18,2759.27,1146.1,2756.29,1146.1z
			 M2051.68,1100.37c0.75,3.79-1.72,7.48-5.51,8.23c-16.19,3.2-32.55,6.73-48.62,10.5c-0.54,0.13-1.07,0.19-1.6,0.19
			c-3.18,0-6.05-2.18-6.81-5.41c-0.88-3.76,1.46-7.53,5.22-8.41 M2640.38,1115.33c-0.5,0-1.01-0.05-1.52-0.17
			c-16.11-3.56-32.51-6.89-48.75-9.9c-3.8-0.7-6.31-4.35-5.61-8.16c0.7-3.8,4.35-6.31,8.16-5.61c16.4,3.03,32.96,6.39,49.22,9.99
			c3.78,0.83,6.16,4.57,5.32,8.35C2646.48,1113.11,2643.59,1115.33,2640.38,1115.33z M2113.75,1096.82c-3.41,0-6.4-2.5-6.92-5.98
			c-0.56-3.82,2.08-7.38,5.9-7.95c16.48-2.43,33.23-4.61,49.8-6.48c3.84-0.43,7.31,2.33,7.74,6.17c0.43,3.84-2.33,7.31-6.17,7.74
			c-16.41,1.85-33.01,4.01-49.32,6.42C2114.44,1096.8,2114.09,1096.82,2113.75,1096.82z M2522.3,1094.33
			c-0.31,0-0.63-0.02-0.95-0.06c-16.35-2.21-32.97-4.17-49.4-5.81c-3.85-0.39-6.65-3.82-6.27-7.66c0.38-3.85,3.81-6.65,7.66-6.27
			c16.59,1.66,33.37,3.64,49.88,5.87c3.83,0.52,6.52,4.04,6,7.87C2528.76,1091.78,2525.75,1094.33,2522.3,1094.33z M2233.01,1084.22
			c-3.66,0-6.74-2.85-6.98-6.55c-0.25-3.86,2.68-7.19,6.54-7.43c16.61-1.06,33.49-1.86,50.17-2.35c3.88-0.1,7.09,2.92,7.21,6.79
			c0.12,3.86-2.92,7.09-6.79,7.21c-16.52,0.49-33.24,1.28-49.69,2.33C2233.31,1084.22,2233.16,1084.22,2233.01,1084.22z
			 M2402.89,1083.2c-0.12,0-0.25,0-0.37-0.01c-16.46-0.85-33.18-1.44-49.71-1.73c-3.87-0.07-6.94-3.26-6.88-7.12
			c0.07-3.82,3.19-6.88,7-6.88c0.04,0,0.08,0,0.13,0c16.69,0.3,33.57,0.88,50.19,1.74c3.86,0.2,6.83,3.49,6.63,7.35
			C2409.68,1080.3,2406.59,1083.2,2402.89,1083.2z"/>
	</g>
	<g>
		<path class="st4" d="M3389.55,858.76c-1.77-9.31-10.79-15.44-20.1-13.68l-238.56,45.36l-0.15,0.03l-0.05,0.01
			c-0.35,0.07-0.7,0.16-1.04,0.25l-0.12,0.03c-0.15,0.04-0.3,0.07-0.44,0.12c-0.17,0.05-0.34,0.11-0.51,0.18l-0.15,0.05
			c-2.28,0.79-4.32,2.02-6.07,3.66l-0.07,0.07c-0.1,0.09-0.2,0.18-0.3,0.27c-0.11,0.11-0.21,0.22-0.31,0.33l-0.08,0.09
			c-1.18,1.25-2.17,2.66-2.93,4.21l-0.07,0.15c-0.12,0.24-0.24,0.48-0.35,0.74c-0.05,0.12-0.09,0.24-0.14,0.35l-0.03,0.08
			c-0.14,0.37-0.28,0.73-0.4,1.11l-0.02,0.05l-123.26,404.35l-1342.16-0.39c-5.33,0-10.45,2.53-13.68,6.77
			c-3.23,4.24-4.31,9.84-2.9,14.99l198.44,719.58c2.05,7.43,8.86,12.62,16.56,12.62c0.05,0,0.1,0,0.14,0l936.82,0.27l0.19,0
			c0.05,0,0.09,0,0.14,0l83.62,0.03c39.34,0.01,68.06,10.34,85.36,30.7c14.9,17.53,22.45,43.49,22.44,77.17
			c-0.02,59.46-48.41,107.82-107.87,107.8l-1265.5-0.37c-9.48,0-17.19,7.71-17.19,17.18c0,9.48,7.71,17.19,17.19,17.19l1265.5,0.37
			c12.64,0,25.03-1.64,36.94-4.82c23.81-6.37,45.66-18.92,63.59-36.85c26.9-26.88,41.72-62.57,41.73-100.5
			c0.01-42.06-10.29-75.52-30.62-99.44c-24.13-28.39-61.66-42.8-111.55-42.81l-60.58-0.02l336.47-1103.77l228.39-43.42
			c4.51-0.86,8.42-3.42,11-7.22C3389.46,867.85,3390.41,863.27,3389.55,858.76z M2983.92,1340.96l-45.84,150.37l-236.58-0.07
			l26.56-150.38L2983.92,1340.96z M2932.33,1510.22l-49.95,163.84l-213.15-0.06l28.94-163.85L2932.33,1510.22z M2339.54,1491.16
			l0.04-150.38l369.3,0.11l-26.56,150.38L2339.54,1491.16z M2820.92,1875.68l-45.84,150.37l-168.03-0.05l26.56-150.38
			L2820.92,1875.68z M2339.49,1673.9l0.05-163.86l339.46,0.1l-28.94,163.85L2339.49,1673.9z M2339.44,1856.65l0.05-163.86
			l307.23,0.09l-28.94,163.85L2339.44,1856.65z M2876.63,1692.95l-49.94,163.84l-189.73-0.06l28.94-163.85L2876.63,1692.95z
			 M2614.44,1875.62l-26.56,150.38l-248.49-0.07l0.04-150.38L2614.44,1875.62z M2042.78,1875.45l26.47,150.39l-205.48-0.06
			l-41.48-150.4L2042.78,1875.45z M2320.6,1692.78l-0.05,163.86l-261.91-0.08l-28.84-163.87L2320.6,1692.78z M2010.61,1692.69
			l28.84,163.87l-222.37-0.06l-45.19-163.87L2010.61,1692.69z M2320.65,1510.04l-0.05,163.86l-294.13-0.09l-28.84-163.87
			L2320.65,1510.04z M1978.44,1509.94l28.85,163.87l-240.6-0.07l-45.19-163.87L1978.44,1509.94z M2320.7,1340.77l-0.04,150.38
			l-326.36-0.1l-26.47-150.39L2320.7,1340.77z M1975.12,1491.05l-258.83-0.08l-41.48-150.4l273.83,0.08L1975.12,1491.05z
			 M2320.54,1875.53l-0.04,150.39l-232.06-0.07l-26.47-150.39L2320.54,1875.53z"/>
		<path class="st4" d="M1930.36,2335.47c-47.93-0.01-86.94,38.97-86.95,86.9c-0.01,47.93,38.97,86.94,86.9,86.95
			c7.77,0,15.31-1.02,22.48-2.94c37.07-9.92,64.46-43.8,64.47-83.96c0.01-23.18-9.04-45.01-25.47-61.45
			C1975.36,2344.53,1953.54,2335.47,1930.36,2335.47z M1930.32,2474.94c-14.01,0-27.2-5.48-37.13-15.42
			c-9.93-9.94-15.4-23.13-15.4-37.14c0.01-24.28,16.56-44.76,38.97-50.76c4.34-1.16,8.89-1.78,13.59-1.78
			c28.98,0.01,52.54,23.59,52.53,52.56c0,14.01-5.48,27.2-15.42,37.13C1957.52,2469.48,1944.33,2474.95,1930.32,2474.94z"/>
		<path class="st4" d="M2672.2,2335.68c-47.93-0.01-86.94,38.97-86.95,86.9c-0.01,23.18,9.04,45.01,25.47,61.45
			c16.43,16.44,38.25,25.5,61.43,25.51c7.77,0,15.31-1.02,22.48-2.94c37.07-9.92,64.46-43.8,64.47-83.96
			C2759.11,2374.7,2720.13,2335.7,2672.2,2335.68z M2672.16,2475.16c-28.98-0.01-52.54-23.59-52.53-52.56
			c0.01-24.28,16.56-44.76,38.97-50.76c4.34-1.16,8.89-1.78,13.59-1.78c28.98,0.01,52.54,23.59,52.53,52.56
			C2724.71,2451.6,2701.13,2475.17,2672.16,2475.16z"/>
		<path class="st4" d="M2672.18,2388.88c-9,0-17.47,3.51-23.84,9.88c-6.38,6.38-9.89,14.84-9.9,23.84
			c-0.01,18.6,15.12,33.74,33.72,33.74c3.02,0,5.94-0.4,8.72-1.14c14.39-3.85,25.01-17,25.02-32.58
			C2705.91,2404.02,2690.78,2388.89,2672.18,2388.88z M2672.17,2437.46c-3.96,0-7.68-1.55-10.49-4.36
			c-2.81-2.81-4.35-6.53-4.35-10.49c0-6.86,4.68-12.64,11.01-14.34c1.22-0.33,2.51-0.5,3.84-0.5c3.96,0,7.68,1.55,10.49,4.36
			c2.81,2.81,4.35,6.53,4.35,10.49C2687.01,2430.8,2680.36,2437.46,2672.17,2437.46z"/>
		<path class="st4" d="M1930.35,2388.66c-18.6,0-33.74,15.12-33.74,33.72c0,18.6,15.12,33.74,33.72,33.74c3.02,0,5.94-0.4,8.72-1.14
			c14.39-3.85,25.01-17,25.02-32.58c0-9-3.51-17.47-9.88-23.85C1947.81,2392.18,1939.34,2388.66,1930.35,2388.66z M1930.33,2437.24
			c-3.96,0-7.68-1.55-10.49-4.36c-2.81-2.81-4.35-6.53-4.35-10.49c0-6.86,4.68-12.64,11.01-14.34c1.22-0.33,2.51-0.5,3.84-0.5
			c8.19,0,14.84,6.66,14.84,14.85c0,3.96-1.55,7.68-4.36,10.49C1938.01,2435.7,1934.29,2437.24,1930.33,2437.24z"/>
		<path class="st4" d="M1741.67,2022.13c0.82,0,1.64-0.11,2.44-0.32c0.03-0.01,0.06-0.02,0.09-0.02c5.02-1.39,7.97-6.6,6.59-11.62
			l-81.45-294.63c-0.67-2.44-2.26-4.47-4.45-5.71c-2.19-1.24-4.73-1.54-7.16-0.88c-5.02,1.39-7.97,6.6-6.59,11.62l81.45,294.63
			C1733.7,2019.28,1737.44,2022.13,1741.67,2022.13z"/>
		<path class="st4" d="M1586.82,1747.44c2.43-0.67,4.46-2.25,5.7-4.45c1.24-2.19,1.56-4.74,0.89-7.17l-46.34-167.61
			c-0.67-2.43-2.25-4.46-4.45-5.71c-2.19-1.24-4.77-1.56-7.17-0.88c-2.43,0.67-4.46,2.25-5.7,4.44c-1.24,2.19-1.56,4.74-0.89,7.17
			l46.34,167.61c1.13,4.08,4.87,6.93,9.1,6.93c0.82,0,1.64-0.11,2.44-0.32C1586.76,1747.45,1586.79,1747.44,1586.82,1747.44z"/>
		<path class="st4" d="M1619.41,1874.8c0.82,0,1.64-0.11,2.44-0.32c0.03-0.01,0.06-0.02,0.09-0.02c2.43-0.67,4.46-2.25,5.7-4.45
			s1.56-4.74,0.89-7.17l-24.12-87.26c-0.67-2.43-2.25-4.46-4.44-5.7c-2.19-1.25-4.75-1.55-7.17-0.89c-2.43,0.67-4.46,2.25-5.7,4.45
			c-1.24,2.19-1.56,4.74-0.89,7.17l24.12,87.26C1611.44,1871.94,1615.18,1874.79,1619.41,1874.8z"/>
	</g>
	<g>
		<g>
			<path class="st5" d="M1319.21,1316.96l0.68-5.96L1319.21,1316.96c-17.59-1.91-34.55-6.61-50.42-13.98
				c-3.01-1.4-4.31-4.96-2.92-7.97c1.39-3.01,4.96-4.31,7.97-2.92c14.69,6.82,30.37,11.17,46.63,12.93l-0.58,5.97L1319.21,1316.96z
				 M1389.62,1308.52c-2.45,0-4.74-1.51-5.63-3.94c-1.14-3.11,0.46-6.56,3.57-7.7c15.27-5.59,29.45-13.62,42.16-23.85
				c2.58-2.08,6.36-1.67,8.44,0.91c2.08,2.58,1.67,6.36-0.91,8.44c-13.73,11.05-29.06,19.72-45.55,25.77
				C1391,1308.4,1390.31,1308.52,1389.62,1308.52z M1216.01,1260.24c-1.75,0-3.49-0.76-4.68-2.24
				c-11.06-13.73-19.73-29.05-25.79-45.54c-1.14-3.11,0.46-6.56,3.57-7.7c3.11-1.14,6.56,0.45,7.7,3.57
				c5.6,15.26,13.63,29.44,23.87,42.15c2.08,2.58,1.67,6.36-0.91,8.44C1218.66,1259.8,1217.33,1260.24,1216.01,1260.24z
				 M1476.81,1228.42c-0.85,0-1.71-0.18-2.52-0.56c-3.01-1.4-4.31-4.96-2.91-7.97c6.83-14.7,11.19-30.41,12.95-46.69l0.03-0.26
				c0.36-3.29,3.31-5.67,6.61-5.32c3.29,0.36,5.68,3.32,5.32,6.61l-0.02,0.22c-1.91,17.61-6.62,34.59-14,50.48
				C1481.24,1227.13,1479.07,1228.42,1476.81,1228.42z M1182.67,1146.67c-0.2,0-0.41-0.01-0.62-0.03c-3.3-0.34-5.69-3.29-5.36-6.59
				l0.02-0.16h0c1.9-17.54,6.59-34.47,13.95-50.33c1.39-3.01,4.96-4.31,7.97-2.92c3.01,1.39,4.31,4.96,2.92,7.97
				c-6.8,14.67-11.14,30.34-12.9,46.57c0,0.04-0.01,0.07-0.01,0.11C1188.32,1144.37,1185.71,1146.67,1182.67,1146.67z
				 M1481.75,1109.88c-2.44,0-4.74-1.5-5.63-3.93c-5.61-15.26-13.65-29.43-23.9-42.13c-2.08-2.58-1.68-6.36,0.9-8.44
				c2.58-2.08,6.36-1.68,8.44,0.9c11.07,13.72,19.76,29.04,25.82,45.52c1.14,3.11-0.45,6.56-3.56,7.7
				C1483.14,1109.76,1482.44,1109.88,1481.75,1109.88z M1239.39,1042.75c-1.75,0-3.49-0.76-4.68-2.23
				c-2.08-2.58-1.67-6.36,0.91-8.44c13.72-11.06,29.04-19.75,45.53-25.8c3.11-1.14,6.56,0.45,7.7,3.56c1.14,3.11-0.45,6.56-3.56,7.7
				c-15.26,5.61-29.44,13.64-42.14,23.88C1242.05,1042.32,1240.72,1042.75,1239.39,1042.75z M1401.53,1022.78
				c-0.84,0-1.7-0.18-2.52-0.56c-14.65-6.79-30.3-11.12-46.52-12.88l-0.18-0.02c-3.3-0.35-5.68-3.3-5.33-6.6
				c0.35-3.29,3.3-5.68,6.6-5.33l0.24,0.03c17.48,1.89,34.39,6.58,50.23,13.91c3.01,1.39,4.31,4.96,2.92,7.97
				C1405.97,1021.49,1403.8,1022.78,1401.53,1022.78z"/>
		</g>
		<g>
			<path class="st5" d="M1087.73,1197.87h-0.14c-17.76,0-35.48-1.92-52.67-5.7c-3.24-0.71-5.28-3.91-4.57-7.15
				c0.71-3.24,3.91-5.28,7.15-4.57c16.35,3.6,33.2,5.42,50.09,5.42h0.14c3.31,0,6,2.69,6,6
				C1093.73,1195.18,1091.04,1197.87,1087.73,1197.87z M1159.29,1186.88c-2.55,0-4.91-1.64-5.72-4.2c-1-3.16,0.76-6.53,3.92-7.53
				c16.06-5.07,31.61-11.92,46.21-20.38c2.87-1.66,6.54-0.68,8.2,2.19c1.66,2.87,0.68,6.54-2.19,8.2
				c-15.37,8.9-31.72,16.11-48.62,21.44C1160.5,1186.79,1159.89,1186.88,1159.29,1186.88z M968.7,1166.1c-1.02,0-2.05-0.26-3-0.81
				c-15.34-8.86-29.75-19.43-42.85-31.41c-2.44-2.24-2.61-6.03-0.37-8.48c2.24-2.45,6.03-2.61,8.48-0.37
				c12.45,11.4,26.16,21.45,40.75,29.87c2.87,1.66,3.85,5.33,2.19,8.2C972.79,1165.03,970.77,1166.1,968.7,1166.1z M1263.14,1120.6
				c-1.45,0-2.9-0.52-4.05-1.58c-2.44-2.24-2.61-6.03-0.37-8.48c11.41-12.45,21.47-26.15,29.9-40.73c1.66-2.87,5.33-3.85,8.2-2.19
				c2.87,1.66,3.85,5.33,2.19,8.2c-8.87,15.33-19.44,29.74-31.44,42.83C1266.38,1119.94,1264.76,1120.6,1263.14,1120.6z
				 M881.51,1079.05c-2.07,0-4.08-1.07-5.2-2.99c-8.91-15.36-16.13-31.71-21.47-48.6c-1-3.16,0.75-6.53,3.91-7.53
				c3.16-1,6.53,0.75,7.53,3.91c5.07,16.05,11.94,31.6,20.41,46.2c1.66,2.87,0.69,6.54-2.18,8.2
				C883.57,1078.79,882.53,1079.05,881.51,1079.05z M1320.06,1011.33c-0.43,0-0.86-0.05-1.3-0.14c-3.24-0.71-5.28-3.92-4.57-7.15
				c3.61-16.39,5.45-33.28,5.45-50.22l0-0.53c-0.01-3.31,2.67-6.01,5.98-6.02c0.01,0,0.01,0,0.02,0c3.31,0,5.99,2.68,6,5.98l0,0.54
				c0,17.82-1.93,35.59-5.73,52.82C1325.29,1009.42,1322.81,1011.33,1320.06,1011.33z M849.54,960.09c-3.31,0-6-2.69-6-6v-0.27
				c0-17.71,1.91-35.39,5.67-52.53c0.71-3.24,3.92-5.28,7.15-4.58c3.24,0.71,5.29,3.91,4.58,7.15c-3.58,16.3-5.39,33.11-5.39,49.96
				v0.27C855.54,957.4,852.85,960.09,849.54,960.09z M1314.53,887.73c-2.54,0-4.91-1.63-5.72-4.19
				c-5.09-16.05-11.98-31.58-20.46-46.18c-1.67-2.86-0.69-6.54,2.17-8.2c2.86-1.67,6.54-0.69,8.2,2.17
				c8.92,15.35,16.17,31.7,21.52,48.58c1,3.16-0.75,6.53-3.9,7.53C1315.74,887.64,1315.13,887.73,1314.53,887.73z M881.23,841.05
				c-1.02,0-2.05-0.26-2.99-0.8c-2.87-1.66-3.86-5.32-2.2-8.19c8.85-15.34,19.41-29.76,31.39-42.87c2.24-2.45,6.03-2.61,8.48-0.38
				c2.45,2.24,2.62,6.03,0.38,8.48c-11.39,12.46-21.44,26.18-29.85,40.76C885.33,839.97,883.31,841.05,881.23,841.05z
				 M1248.07,783.99c-1.44,0-2.89-0.52-4.04-1.57c-12.47-11.39-26.19-21.42-40.78-29.83c-2.87-1.65-3.86-5.32-2.2-8.19
				c1.65-2.87,5.32-3.86,8.19-2.2c15.35,8.84,29.77,19.39,42.88,31.36c2.45,2.23,2.62,6.03,0.38,8.48
				C1251.32,783.33,1249.7,783.99,1248.07,783.99z M968.25,753.8c-2.07,0-4.08-1.07-5.19-2.99c-1.66-2.87-0.69-6.54,2.18-8.2
				c15.36-8.92,31.71-16.15,48.59-21.5c3.16-1,6.53,0.75,7.53,3.91c1,3.16-0.75,6.53-3.91,7.53c-16.05,5.08-31.59,11.96-46.19,20.43
				C970.31,753.54,969.27,753.8,968.25,753.8z M1138.71,727.27c-0.42,0-0.86-0.05-1.29-0.14c-16.26-3.56-33.03-5.36-49.83-5.36
				l-0.41,0c-3.31,0-6-2.69-6-6c0-3.31,2.69-6,6-6l0.39,0c17.69,0,35.31,1.9,52.42,5.64c3.24,0.71,5.29,3.91,4.58,7.14
				C1143.95,725.35,1141.47,727.27,1138.71,727.27z"/>
		</g>
		<g>
			<path class="st5" d="M3550.09,2299.22c-0.18,0-0.36-0.01-0.54-0.02c-16.42-1.46-32.86-4.14-48.87-7.97
				c-3.22-0.77-5.21-4.01-4.44-7.23c0.77-3.22,4-5.21,7.23-4.44c15.44,3.69,31.3,6.28,47.14,7.68c3.3,0.29,5.74,3.21,5.45,6.51
				C3555.78,2296.87,3553.16,2299.22,3550.09,2299.22z M3618.11,2298.34c-3.01,0-5.61-2.26-5.95-5.32
				c-0.37-3.29,1.99-6.27,5.28-6.64c15.83-1.8,31.63-4.77,46.95-8.81c3.21-0.85,6.49,1.07,7.33,4.27c0.85,3.2-1.06,6.49-4.27,7.33
				c-15.88,4.19-32.25,7.27-48.66,9.13C3618.57,2298.32,3618.34,2298.34,3618.11,2298.34z M3437.85,2268.87
				c-0.86,0-1.72-0.18-2.55-0.57c-14.9-7-29.42-15.17-43.17-24.27c-2.76-1.83-3.52-5.55-1.69-8.31c1.83-2.76,5.55-3.52,8.31-1.69
				c13.27,8.78,27.28,16.66,41.65,23.42c3,1.41,4.29,4.98,2.88,7.98C3442.27,2267.6,3440.11,2268.87,3437.85,2268.87z
				 M3729.59,2265.35c-2.2,0-4.32-1.22-5.37-3.32c-1.48-2.96-0.28-6.57,2.69-8.05c14.19-7.09,28-15.29,41.04-24.39
				c2.72-1.89,6.46-1.23,8.35,1.49c1.9,2.72,1.23,6.46-1.49,8.35c-13.52,9.43-27.83,17.93-42.54,25.28
				C3731.4,2265.15,3730.49,2265.35,3729.59,2265.35z M3342.79,2201.94c-1.54,0-3.08-0.59-4.25-1.76
				c-11.63-11.67-22.5-24.29-32.31-37.5c-1.98-2.66-1.42-6.42,1.24-8.39c2.66-1.98,6.42-1.42,8.39,1.24
				c9.47,12.74,19.96,24.92,31.18,36.18c2.34,2.35,2.33,6.15-0.01,8.49C3345.86,2201.35,3344.32,2201.94,3342.79,2201.94z
				 M3822.93,2196.14c-1.48,0-2.97-0.55-4.13-1.65c-2.4-2.28-2.51-6.08-0.23-8.48c10.94-11.54,21.12-23.97,30.28-36.96
				c1.91-2.71,5.65-3.35,8.36-1.45c2.71,1.91,3.36,5.65,1.45,8.36c-9.49,13.46-20.05,26.34-31.38,38.3
				C3826.11,2195.51,3824.52,2196.14,3822.93,2196.14z M3276.26,2106.62c-2.26,0-4.43-1.29-5.45-3.48
				c-6.93-14.94-12.82-30.52-17.5-46.32c-0.94-3.18,0.87-6.52,4.05-7.46c3.17-0.94,6.52,0.87,7.46,4.05
				c4.51,15.24,10.19,30.27,16.88,44.68c1.39,3.01,0.09,6.57-2.92,7.97C3277.96,2106.44,3277.1,2106.62,3276.26,2106.62z
				 M3887.14,2099.21c-0.8,0-1.61-0.16-2.39-0.5c-3.04-1.32-4.43-4.86-3.1-7.9c6.36-14.59,11.69-29.76,15.84-45.08
				c0.87-3.2,4.16-5.09,7.36-4.22c3.2,0.87,5.09,4.16,4.22,7.36c-4.31,15.89-9.83,31.62-16.42,46.74
				C3891.66,2097.86,3889.46,2099.21,3887.14,2099.21z M3246.47,1994.26c-3.07,0-5.69-2.35-5.97-5.47l-0.03-0.38
				c-0.82-9.64-1.23-19.43-1.23-29.08c0-6.68,0.2-13.43,0.59-20.07c0.19-3.31,3.04-5.86,6.34-5.64c3.31,0.19,5.83,3.03,5.64,6.34
				c-0.38,6.41-0.57,12.92-0.57,19.36c0,9.31,0.4,18.76,1.19,28.09l0.03,0.3c0.29,3.3-2.14,6.21-5.44,6.51
				C3246.83,1994.25,3246.65,1994.26,3246.47,1994.26z M3914.27,1986.14c-0.12,0-0.24,0-0.36-0.01c-3.31-0.2-5.83-3.04-5.63-6.35
				c0.39-6.52,0.59-13.14,0.59-19.69c0-9.32-0.4-18.77-1.19-28.09l-0.06-0.65c-0.28-3.3,2.17-6.21,5.47-6.49
				c3.29-0.29,6.21,2.17,6.49,5.47l0.06,0.65c0.82,9.66,1.23,19.46,1.23,29.11c0,6.79-0.21,13.65-0.61,20.4
				C3920.06,1983.68,3917.41,1986.14,3914.27,1986.14z M3256.74,1878.45c-0.52,0-1.04-0.07-1.57-0.21c-3.2-0.86-5.09-4.16-4.23-7.36
				c4.29-15.89,9.8-31.62,16.38-46.75c1.32-3.04,4.86-4.43,7.89-3.11c3.04,1.32,4.43,4.86,3.11,7.89
				c-6.34,14.59-11.66,29.77-15.8,45.1C3261.8,1876.69,3259.38,1878.45,3256.74,1878.45z M3900.93,1869.99
				c-2.59,0-4.97-1.69-5.75-4.29c-4.53-15.23-10.22-30.26-16.92-44.66c-1.4-3-0.09-6.57,2.91-7.97c3-1.4,6.57-0.1,7.97,2.91
				c6.95,14.93,12.85,30.51,17.54,46.31c0.94,3.18-0.86,6.52-4.04,7.46C3902.07,1869.91,3901.5,1869.99,3900.93,1869.99z
				 M3306.14,1773.19c-1.19,0-2.4-0.35-3.45-1.09c-2.71-1.91-3.36-5.65-1.45-8.36c9.48-13.47,20.02-26.36,31.34-38.33
				c2.28-2.41,6.08-2.51,8.48-0.23c2.41,2.28,2.51,6.08,0.23,8.48c-10.92,11.55-21.1,23.99-30.24,36.99
				C3309.88,1772.3,3308.02,1773.19,3306.14,1773.19z M3848.86,1766.07c-1.83,0-3.64-0.83-4.82-2.42
				c-9.48-12.74-19.98-24.9-31.22-36.15c-2.34-2.34-2.34-6.14,0-8.48c2.35-2.34,6.14-2.34,8.49,0.01
				c11.65,11.66,22.53,24.27,32.35,37.46c1.98,2.66,1.43,6.42-1.23,8.4C3851.36,1765.68,3850.11,1766.07,3848.86,1766.07z
				 M3388.46,1691.1c-1.89,0-3.75-0.89-4.92-2.56c-1.9-2.72-1.24-6.46,1.48-8.36c13.5-9.44,27.81-17.96,42.52-25.32
				c2.96-1.49,6.57-0.28,8.05,2.68c1.48,2.96,0.28,6.57-2.68,8.05c-14.19,7.1-27.99,15.32-41.01,24.43
				C3390.84,1690.75,3389.65,1691.1,3388.46,1691.1z M3764.37,1686.22c-1.13,0-2.28-0.32-3.3-0.99
				c-13.27-8.77-27.3-16.63-41.67-23.38c-3-1.41-4.29-4.98-2.89-7.98c1.41-3,4.98-4.29,7.98-2.88c14.9,6.99,29.43,15.14,43.19,24.23
				c2.77,1.83,3.53,5.55,1.7,8.31C3768.22,1685.27,3766.31,1686.22,3764.37,1686.22z M3493.85,1642.15c-2.66,0-5.08-1.78-5.8-4.46
				c-0.85-3.2,1.06-6.49,4.26-7.34c15.87-4.21,32.24-7.3,48.65-9.18c3.29-0.37,6.27,1.98,6.65,5.28c0.38,3.29-1.98,6.27-5.28,6.65
				c-15.83,1.82-31.63,4.8-46.94,8.86C3494.88,1642.09,3494.36,1642.15,3493.85,1642.15z M3657.7,1639.96
				c-0.46,0-0.93-0.05-1.4-0.16c-15.44-3.68-31.31-6.25-47.14-7.64c-3.3-0.29-5.74-3.2-5.45-6.5c0.29-3.3,3.21-5.75,6.5-5.45
				c16.42,1.44,32.87,4.1,48.88,7.92c3.22,0.77,5.21,4,4.45,7.23C3662.88,1638.1,3660.42,1639.96,3657.7,1639.96z"/>
		</g>
	</g>
	<g>
		<g>
			<g>
				<g>
					<g>
						<g>
							<g>
								<polygon class="st6" points="1434.16,2510.15 1099.17,2510.15 1129.6,2153.67 1403.73,2153.67 								"/>
							</g>
						</g>
					</g>
				</g>
				<g>
					<g>
						<g>
							<g>
								<path class="st6" d="M1350.49,2132.81c-9.35-37.58-43.39-65.51-83.83-65.51c-40.44,0-74.48,27.93-83.83,65.51
									c-1.67,6.68-2.55,13.68-2.55,20.87h21.77c0-7.3,1.21-14.32,3.46-20.87c8.69-25.42,32.82-43.74,61.15-43.74
									c28.33,0,52.46,18.33,61.15,43.74c2.25,6.55,3.46,13.57,3.46,20.87h21.77C1353.05,2146.49,1352.16,2139.49,1350.49,2132.81z
									"/>
							</g>
						</g>
					</g>
				</g>
				<g class="st7">
					<g>
						<g>
							<g>
								<path class="st8" d="M1409.51,2221.35c0,0-58.09,211.51-302.96,202.34l-7.38,86.47h334.99L1409.51,2221.35z"/>
							</g>
						</g>
					</g>
				</g>
				<g class="st7">
					<g>
						<g>
							<g>
								<path class="st8" d="M1205.52,2132.81c-2.25,6.55-3.46,13.57-3.46,20.87h-21.77c0-7.19,0.88-14.18,2.55-20.87H1205.52z"/>
							</g>
						</g>
					</g>
				</g>
				<g class="st7">
					<g>
						<g>
							<g>
								<path class="st8" d="M1353.05,2153.68h-21.77c0-7.3-1.21-14.32-3.46-20.87h22.68
									C1352.16,2139.49,1353.05,2146.49,1353.05,2153.68z"/>
							</g>
						</g>
					</g>
				</g>
			</g>
		</g>
		<g>
			<g>
				<g>
					<g>
						<g>
							<g>
								<path class="st8" d="M869.12,2027.9h27.74c0-9.3,1.55-18.24,4.41-26.59c11.07-32.38,41.81-55.74,77.91-55.74
									c36.09,0,66.84,23.35,77.91,55.74c2.86,8.34,4.41,17.29,4.41,26.59h27.74c0-9.16-1.12-18.07-3.25-26.59
									c-11.91-47.89-55.28-83.48-106.81-83.48c-51.53,0-94.9,35.59-106.81,83.48C870.25,2009.82,869.12,2018.73,869.12,2027.9z"/>
							</g>
						</g>
					</g>
				</g>
				<g class="st9">
					<g>
						<g>
							<g>
								<path class="st8" d="M1057.1,2001.31c2.86,8.34,4.41,17.29,4.41,26.59h27.74c0-9.16-1.12-18.07-3.25-26.59H1057.1z"/>
							</g>
						</g>
					</g>
				</g>
				<g class="st9">
					<g>
						<g>
							<g>
								<path class="st8" d="M869.12,2027.9h27.74c0-9.3,1.55-18.24,4.41-26.59h-28.9C870.25,2009.82,869.12,2018.73,869.12,2027.9z
									"/>
							</g>
						</g>
					</g>
				</g>
			</g>
			<rect x="790.41" y="2027.9" class="st8" width="377.56" height="482.26"/>
			
				<rect x="707.41" y="2027.9" transform="matrix(-1 -1.224647e-16 1.224647e-16 -1 1792.385 4538.0503)" class="st6" width="377.56" height="482.26"/>
			<polygon class="st10" points="1084.97,2510.15 1167.97,2510.15 1126.47,2467.2 			"/>
			<g>
				<g>
					<g>
						<g>
							<g>
								<path class="st3" d="M976.03,2128.2v97.55h72.65v-97.55c0-0.99-0.39-1.93-1.09-2.63l-32.61-32.62
									c-0.03-0.03-0.07-0.05-0.1-0.08l0-64.97h-5.07v64.97c-0.03,0.03-0.07,0.05-0.1,0.08l-32.61,32.62
									C976.42,2126.27,976.03,2127.21,976.03,2128.2z M1013.35,2104.42c1.99,0.38,3.6,1.99,3.98,3.98
									c0.68,3.57-2.4,6.64-5.97,5.97c-1.99-0.38-3.6-1.99-3.98-3.98C1006.71,2106.82,1009.78,2103.75,1013.35,2104.42z"/>
							</g>
						</g>
					</g>
				</g>
				<g>
					<g>
						<g>
							<path class="st6" d="M998.73,2149.17c-5.32,0-9.92,3.05-12.17,7.49l0,0c0,0,0,0,0,0c-0.26,0.52-0.49,1.05-0.69,1.6
								c-6.74,18.45,26.49,39.17,26.49,39.17v-34.62C1012.36,2155.27,1006.26,2149.17,998.73,2149.17z"/>
						</g>
					</g>
					<g>
						<g>
							<path class="st8" d="M1025.99,2149.17c5.32,0,9.92,3.05,12.17,7.49l0,0c0,0,0,0,0,0c0.26,0.52,0.49,1.05,0.69,1.6
								c6.74,18.45-26.49,39.17-26.49,39.17v-34.62C1012.36,2155.27,1018.46,2149.17,1025.99,2149.17z"/>
						</g>
					</g>
				</g>
			</g>
			
				<rect x="1084.97" y="2027.9" transform="matrix(-1 -1.224647e-16 1.224647e-16 -1 2211.4402 4538.0483)" class="st11" width="41.5" height="482.26"/>
			<g>
				<g>
					<g>
						<g>
							<path class="st6" d="M786.13,2027.9h27.74c0-9.3,1.55-18.24,4.41-26.59c11.07-32.38,41.81-55.74,77.91-55.74
								c36.09,0,66.84,23.35,77.91,55.74c2.86,8.34,4.41,17.29,4.41,26.59h27.74c0-9.16-1.12-18.07-3.25-26.59
								c-11.91-47.89-55.28-83.48-106.81-83.48c-51.53,0-94.9,35.59-106.81,83.48C787.25,2009.82,786.13,2018.73,786.13,2027.9z"/>
						</g>
					</g>
				</g>
			</g>
			<g class="st7">
				<g>
					<g>
						<g>
							<path class="st8" d="M974.11,2001.31c2.86,8.34,4.41,17.29,4.41,26.59h27.74c0-9.16-1.12-18.07-3.25-26.59H974.11z"/>
						</g>
					</g>
				</g>
			</g>
			<g class="st7">
				<g>
					<g>
						<g>
							<path class="st8" d="M786.13,2027.9h27.74c0-9.3,1.55-18.24,4.41-26.59h-28.9C787.25,2009.82,786.13,2018.73,786.13,2027.9z"
								/>
						</g>
					</g>
				</g>
			</g>
			<path class="st10" d="M1084.97,2078.48c0,0-1.28,431.67-341.69,431.67l341.69,0V2078.48z"/>
		</g>
	</g>
	<g>
		<g>
			<path class="st12" d="M3357.17,2231.24c0.52,8.32,3.79,17,12.12,25.78c2.72,2.87,5.48,5.37,8.19,7.55
				c1.82,1.46,3.62,2.77,5.37,3.96h0.01c2.12,1.43,4.17,2.66,6.12,3.73c3.45,1.89,6.58,3.25,9.13,4.21
				c4.28,1.61,6.97,2.11,6.97,2.11l53.23-2.11l7.42-0.29c0.01-0.99-0.01-2.31-0.09-3.92c-0.18-3.84-0.71-9.31-2.09-15.73
				c-3.46-16.14-12.32-38.28-34.66-55.63c-39.92-30.98-62.43-6.59-67.49,7.25c-1.67,4.57-3.14,9.39-3.86,14.4
				C3357.15,2225.4,3356.99,2228.3,3357.17,2231.24z"/>
			<path class="st13" d="M3357.17,2231.24c0.52,8.32,3.79,17,12.12,25.79c2.72,2.87,5.48,5.37,8.19,7.55c0,0,0,0,0,0
				c-2.36-33.28,33.93-26.77,33.93-26.77l-21.44-24.19C3389.98,2213.62,3361.94,2203.98,3357.17,2231.24z"/>
			<path class="st12" d="M3468.73,2276.48c0,0.18,0,0.35,0.01,0.51l60.64,1.64c0,0,2.74-0.5,7.09-2.15
				c2.56-0.97,5.67-2.33,9.11-4.21c5.95-3.26,12.88-8.09,19.6-15.17c16.48-17.36,13.2-34.36,7.92-48.86
				c-5.05-13.85-27.55-38.25-67.49-7.3c-22.66,17.56-31.46,40.07-34.84,56.26c-1.28,6.14-1.78,11.36-1.96,15.07
				C3468.73,2274.04,3468.71,2275.47,3468.73,2276.48z"/>
			<path class="st13" d="M3577.39,2231.32c-0.53,8.31-3.81,17-12.14,25.78c-2.72,2.87-5.48,5.37-8.2,7.55c0,0,0,0,0,0
				c2.38-33.27-33.91-26.79-33.91-26.79l21.46-24.18C3544.6,2213.67,3572.64,2204.05,3577.39,2231.32z"/>
			<path class="st5" d="M3478.95,2268.57c0.37-0.24,48.15-31.02,58.74-43.61c9.49-11.27,13.73-27.98-3.33-24.69c0,0,0,0,0,0
				c-2.07,0.4-4.45,1.09-7.17,2.12c-18.65,7.07-35.26,37.76-43.23,54.75C3480.8,2263.87,3479,2268.44,3478.95,2268.57z"/>
			<path class="st5" d="M3455.52,2268.56c0,0-22.08-56.27-48.2-66.2c-25.17-9.57-21.14,9.91-10.51,22.55
				C3407.44,2237.55,3455.52,2268.56,3455.52,2268.56z"/>
			<path class="st1" d="M3478.95,2268.57c0.37-0.24,48.15-31.02,58.74-43.61c9.49-11.27,13.73-27.98-3.33-24.69c0,0,0,0,0,0
				c-0.08,0.33,7.21,25.72-50.41,56.87C3480.8,2263.87,3479,2268.44,3478.95,2268.57z"/>
			<path class="st1" d="M3455.52,2268.56c-0.37-0.24-48.12-31.05-58.71-43.65c-9.48-11.27-13.71-27.99,3.34-24.68c0,0,0,0,0,0
				c0.08,0.33-7.23,25.71,50.37,56.9C3453.67,2263.86,3455.47,2268.44,3455.52,2268.56z"/>
			<path class="st5" d="M3450.51,2276.98l33.44,0.01c0-0.17,0-0.34-0.01-0.51c-0.04-1.46-0.27-2.87-0.67-4.21
				c-2.04-6.93-8.45-12-16.04-12c-7.6,0-14.01,5.06-16.05,12c-0.4,1.34-0.63,2.75-0.67,4.21
				C3450.51,2276.64,3450.51,2276.81,3450.51,2276.98z"/>
		</g>
		<g>
			<g>
				<g>
					
						<rect x="3346.51" y="2296.17" transform="matrix(-1 -1.224647e-16 1.224647e-16 -1 6934.4927 4806.6152)" class="st8" width="241.48" height="214.28"/>
				</g>
			</g>
			<g>
				<g>
					
						<rect x="3332.53" y="2275.93" transform="matrix(-1 -1.224647e-16 1.224647e-16 -1 6934.4932 4589.7461)" class="st8" width="269.43" height="37.89"/>
				</g>
			</g>
			<g>
				<g>
					
						<rect x="3454.57" y="2275.93" transform="matrix(-1 -1.224647e-16 1.224647e-16 -1 6934.4932 4786.3794)" class="st3" width="25.36" height="234.52"/>
				</g>
			</g>
			<g class="st14">
				<g>
					
						<rect x="3346.51" y="2313.82" transform="matrix(-1 4.141149e-07 -4.141149e-07 -1 6934.4937 4645.127)" class="st8" width="241.48" height="17.49"/>
				</g>
			</g>
		</g>
	</g>
</g>
</svg>
