<?xml version="1.0" encoding="utf-8"?>
<!-- Generator: Adobe Illustrator 26.4.1, SVG Export Plug-In . SVG Version: 6.00 Build 0)  -->
<svg version="1.1" xmlns="http://www.w3.org/2000/svg" xmlns:xlink="http://www.w3.org/1999/xlink" x="0px" y="0px"
	 viewBox="0 0 90.82 76.2" style="enable-background:new 0 0 90.82 76.2;" xml:space="preserve">
<style type="text/css">
	.st0{fill:none;}
	.st1{fill:#E3A645;}
	.st2{fill:#D0665B;}
	.st3{fill:#9ACCE5;}
	.st4{fill:#434043;}
	.st5{fill:none;stroke:#434043;stroke-width:0.7717;stroke-linecap:round;stroke-linejoin:round;stroke-miterlimit:10;}
</style>
<g id="BACKGROUND">
</g>
<g id="OBJECTS">
	<g>
		<g>
			<path class="st0" d="M22.48,22.18c1.06,2,2.09,4.07,3.12,6.14c0.55,1.1,1.1,2.21,1.65,3.3h1.51c-1.54-2.98-3.11-6.33-4.56-9.43
				H22.48z"/>
			<path class="st0" d="M73.81,35.38c0.02-0.11,0.05-0.21,0.07-0.32c0.06-0.28,0.11-0.59,0.16-0.9h-3.63
				c-0.11,0.47-0.23,0.83-0.34,1.02c-1.17,1.95-30.32,6.31-34.92,5.14c-1.38-0.35-3.14-2.81-5.02-6.15h-1.55
				c2.87,5.39,5.8,9.77,8.7,9.77c11.06,0,32.84-3.72,35.78-6.66C73.36,36.95,73.61,36.28,73.81,35.38z"/>
			<path class="st0" d="M70.86,31.61h3.49c0.14-1.52,0.25-3.14,0.34-4.64c0.1-1.58,0.2-3.2,0.34-4.8h-3.19
				C71.57,25.41,71.23,29,70.86,31.61z"/>
			<path class="st1" d="M24.2,22.18c1.46,3.1,3.02,6.46,4.56,9.43h42.09c0.37-2.61,0.71-6.2,0.98-9.43H24.2z"/>
			<path class="st2" d="M72.31,13.3H21.16c0.57,1.12,1.19,2.4,1.85,3.79h49.03C72.16,15.57,72.25,14.25,72.31,13.3z"/>
			<path class="st3" d="M35.15,41.3c4.6,1.17,33.75-3.18,34.92-5.14c0.11-0.19,0.23-0.54,0.34-1.02H30.13
				C32,38.49,33.77,40.95,35.15,41.3z"/>
			<path class="st4" d="M81.74,9.01c-4.2,0-5.72,4.82-6.44,10.63h-3.25H23h-1.91C17.32,12.99,13.11,7.75,7.63,7.75
				c-0.7,0-1.27,0.57-1.27,1.27c0,0.7,0.57,1.27,1.27,1.27c3.91,0,7.37,4.08,10.52,9.35h-0.47c-0.7,0-1.27,0.57-1.27,1.27
				c0,0.7,0.57,1.27,1.27,1.27h1.92c1.29,2.36,2.54,4.86,3.73,7.27c0.36,0.73,0.72,1.45,1.08,2.17h-0.45c-0.7,0-1.27,0.57-1.27,1.27
				c0,0.7,0.57,1.27,1.27,1.27h1.74c3.61,6.97,7.06,12.31,11.57,12.31c7.82,0,24.15-2.13,32.69-4.97
				c-6.27,5.4-18.58,7.82-28.22,9.72c-9.33,1.83-13.83,2.83-14.29,5.49c-0.14,0.81,0.07,1.57,0.62,2.2c1.45,1.64,5.16,1.9,7.35,1.9
				v1.54c-1.25,0.5-2.13,1.72-2.13,3.15c0,1.88,1.52,3.4,3.4,3.4c1.88,0,3.4-1.52,3.4-3.4c0-1.43-0.88-2.65-2.13-3.15v-1.57h28.02
				v1.57c-1.25,0.5-2.13,1.72-2.13,3.15c0,1.88,1.52,3.4,3.4,3.4c1.88,0,3.4-1.52,3.4-3.4c0-1.43-0.88-2.65-2.13-3.15v-1.57h6.64
				c0.7,0,1.27-0.57,1.27-1.27c0-0.7-0.57-1.27-1.27-1.27l-7.91,0c0,0,0,0,0,0s0,0,0,0l-30.55,0c0,0-0.01,0-0.01,0s-0.01,0-0.01,0
				h-0.05c-3.37,0.17-6.42-0.45-6.69-1.06c0.58-1.17,7.35-2.5,12.29-3.47c13.49-2.65,31.92-6.28,34.12-18.03
				c0.01-0.07,0.03-0.13,0.04-0.2c0.01-0.04,0.02-0.08,0.02-0.12c0-0.01,0-0.01,0-0.02c0.07-0.37,0.14-0.76,0.2-1.17h1.11
				c0.7,0,1.27-0.57,1.27-1.27c0-0.7-0.57-1.27-1.27-1.27h-0.82c0.12-1.33,0.22-2.82,0.33-4.48c0.1-1.57,0.21-3.27,0.36-4.96h0.89
				c0.7,0,1.27-0.57,1.27-1.27c0-0.7-0.57-1.27-1.27-1.27h-0.61c0.57-4.39,1.62-8.09,3.88-8.09c0.7,0,1.27-0.57,1.27-1.27
				C83.01,9.57,82.44,9.01,81.74,9.01z M28.57,34.15h1.55h40.28h3.63c-0.05,0.32-0.1,0.62-0.16,0.9c-0.02,0.11-0.05,0.21-0.07,0.32
				c-0.2,0.9-0.45,1.57-0.76,1.88c-2.94,2.94-24.72,6.66-35.78,6.66C34.37,43.92,31.45,39.55,28.57,34.15z M74.68,26.98
				c-0.1,1.5-0.2,3.12-0.34,4.64h-3.49H28.76h-1.51c-0.55-1.09-1.1-2.2-1.65-3.3c-1.03-2.06-2.06-4.14-3.12-6.14h1.72h47.64h3.19
				C74.89,23.77,74.78,25.39,74.68,26.98z"/>
		</g>
	</g>
</g>
</svg>
